<svg width="640" height="110" viewBox="0 0 640 110" fill="none" xmlns="http://www.w3.org/2000/svg">
<g clip-path="url(#clip0_1552_17)">
<g filter="url(#filter0_d_1552_17)">
<path d="M70.1539 17.1H44.2539L44.2539 92H58.9539V56.9H70.8539C80.6039 56.9 86.2539 51.35 86.2539 41.65C86.2539 32.6 80.6039 27 71.5539 27L54.7539 27V47L58.9539 47V31.2H71.5539C78.3039 31.2 82.0539 35 82.0539 41.65C82.0539 47.65 79.5039 52.7 70.8539 52.7L54.7539 52.7L54.7539 87.8H48.4539L48.4539 21.3H70.1539C90.3539 21.3 92.5539 35.5 92.5539 41.65C92.5539 54.25 84.8039 62.6 72.0039 62.6H65.2539V66.8H72.0039C87.7539 66.8 96.7539 55.95 96.7539 41.65C96.7539 28.7 89.0039 17.1 70.1539 17.1ZM144.915 17.1H130.215L113.365 63.45L150.965 63.45L137.565 26.6L127.765 53.55H132.215L137.565 38.9L144.965 59.25H119.365L133.165 21.3H141.965L166.165 87.8H159.765L153.015 69.15L111.265 69.15L102.965 92L118.265 92L122.965 79.05H118.515L115.315 87.8H108.965L114.215 73.35L150.065 73.35L156.815 92H172.165L144.915 17.1ZM211.134 43.25L209.734 47.2C221.734 52.15 227.084 59.65 227.084 70.95C227.084 84.35 215.684 88.85 203.984 88.85C196.584 88.85 190.184 87.4 183.134 84.05L185.284 78.35C192.134 81.55 198.434 83.15 203.984 83.15C218.634 83.15 220.784 75.5 220.784 70.95C220.784 59.05 212.834 55.35 205.884 51.6C200.434 48.65 195.584 46.15 195.584 38.45C195.584 33.15 199.434 30.1 206.884 30.1C212.734 30.1 218.134 31.8 224.234 34.95L229.234 21.35C222.934 18.15 218.484 16 206.834 16C192.984 16 180.884 23.6 180.884 38.5C180.884 50.1 186.784 58.35 197.434 63.15L198.884 59.2C191.134 55.65 185.084 49.4 185.084 38.5C185.084 26.35 194.884 20.2 206.834 20.2C216.034 20.2 219.534 21.45 223.984 23.45L221.884 29.2C216.534 26.95 211.784 25.9 206.884 25.9C195.784 25.9 191.384 32 191.384 38.45C191.384 48.25 197.534 51.9 203.784 55.25C210.134 58.7 216.584 61.3 216.584 70.95C216.584 76.55 212.084 78.95 203.984 78.95C197.184 78.95 189.834 76.15 182.984 72.55L177.884 86.1C185.384 90.15 193.434 93.05 203.984 93.05C219.834 93.05 231.284 85.55 231.284 70.95C231.284 57.15 224.184 48.55 211.134 43.25ZM289.824 17.1V45.6H251.774V21.3H258.074V39.9H262.274V17.1H247.574V49.8H294.024V21.3H300.324V87.8H294.024V55.5H247.574V92H262.274V65.4H258.074V87.8H251.774V59.7H289.824V92H304.524V17.1H289.824ZM358.977 17.1H344.277L327.427 63.45H365.027L351.627 26.6L341.827 53.55H346.277L351.627 38.9L359.027 59.25H333.427L347.227 21.3H356.027L380.227 87.8H373.827L367.077 69.15L325.327 69.15L317.027 92H332.327L337.027 79.05H332.577L329.377 87.8H323.027L328.277 73.35H364.127L370.877 92H386.227L358.977 17.1Z" fill="white"/>
</g>
<g filter="url(#filter1_d_1552_17)">
<path d="M421.461 17.1L397.861 17.1V21.3L421.461 21.3C441.661 21.3 450.761 35.55 450.761 54.5C450.761 74.7 439.011 87.8 420.761 87.8H402.061V31.2H421.461C433.411 31.2 440.261 39.45 440.261 54.5C440.261 68.55 432.861 77.9 421.461 77.9H412.561V36.85H408.361V82.1H421.461C435.211 82.1 444.461 71 444.461 54.5C444.461 37.25 435.861 27 421.511 27H397.861V92H420.761C441.261 92 454.961 77.05 454.961 54.5C454.961 30.45 441.611 17.1 421.461 17.1ZM485.901 77.9V49.85H511.501V55.55L492.201 55.55V59.75L515.701 59.75V45.65H481.701V82.1L513.351 82.1V87.8L475.401 87.8V21.3L512.651 21.3V27H481.701V39.95H485.901V31.2H516.851V17.1L471.201 17.1V92L517.551 92V77.9L485.901 77.9ZM579.218 17.1L564.318 59.1L566.518 65.45L582.168 21.3H588.768L566.518 83.35L543.018 17.1L527.518 17.1L554.418 92H558.868L533.468 21.3H540.068L565.118 92H567.868L594.718 17.1H579.218Z" fill="#FF640D"/>
</g>
<g filter="url(#filter2_d_1552_17)">
<path d="M24.9469 42.6V26.25C24.9469 22.9 28.4969 21.3 32.2469 21.3V7.69999C21.2469 7.69999 11.0469 14 11.0469 24.35L11.0469 41C11.0469 44 9.24688 45.9 7.04688 46.9V51.4C11.4469 50.1 15.2469 46.55 15.2469 41L15.2469 24.35C15.2469 17.65 21.2469 13.45 28.0469 12.25V17.65C23.5969 18.9 20.7469 22.05 20.7469 26.25L20.7469 42.6C20.7469 44.75 19.6969 48.75 16.7469 51.1L15.1969 52.35V56.65L16.7469 57.9C19.6969 60.3 20.7469 64.3 20.7469 66.45L20.7469 82.8C20.7469 87 23.5969 90.2 28.0469 91.4V96.75C21.2469 95.5 15.2469 91.4 15.2469 84.7L15.2469 68.05C15.2469 62.5 11.4469 58.95 7.04688 57.65V62.15C9.24688 63.1 11.0469 65.05 11.0469 68.05L11.0469 84.7C11.0469 95 21.2469 101.3 32.2469 101.3L32.2469 87.75C28.4969 87.75 24.9469 86.2 24.9469 82.8V66.45C24.9469 63.25 23.4469 57.95 19.3969 54.65V54.4C23.4469 51.1 24.9469 45.75 24.9469 42.6Z" fill="#FF640D"/>
</g>
<g filter="url(#filter3_d_1552_17)">
<path d="M614.097 42.6C614.097 45.75 615.597 51.1 619.647 54.4V54.65C615.597 57.95 614.097 63.25 614.097 66.45V82.8C614.097 86.2 610.547 87.75 606.797 87.75V101.3C617.797 101.3 627.997 95 627.997 84.7V68.05C627.997 65.05 629.797 63.1 631.997 62.15V57.65C627.597 58.95 623.797 62.5 623.797 68.05V84.7C623.797 91.4 617.797 95.5 610.997 96.75V91.4C615.447 90.2 618.297 87 618.297 82.8V66.45C618.297 64.3 619.347 60.3 622.297 57.9L623.847 56.65V52.35L622.297 51.1C619.347 48.75 618.297 44.75 618.297 42.6V26.25C618.297 22.05 615.447 18.9 610.997 17.65V12.25C617.797 13.45 623.797 17.65 623.797 24.35V41C623.797 46.55 627.597 50.1 631.997 51.4V46.9C629.797 45.9 627.997 44 627.997 41V24.35C627.997 14 617.797 7.69999 606.797 7.69999V21.3C610.547 21.3 614.097 22.9 614.097 26.25V42.6Z" fill="white"/>
</g>
</g>
<defs>
<filter id="filter0_d_1552_17" x="44.2539" y="16" width="343.974" height="79.05" filterUnits="userSpaceOnUse" color-interpolation-filters="sRGB">
<feFlood flood-opacity="0" result="BackgroundImageFix"/>
<feColorMatrix in="SourceAlpha" type="matrix" values="0 0 0 0 0 0 0 0 0 0 0 0 0 0 0 0 0 0 127 0" result="hardAlpha"/>
<feOffset dx="1" dy="1"/>
<feGaussianBlur stdDeviation="0.5"/>
<feColorMatrix type="matrix" values="0 0 0 0 0 0 0 0 0 0 0 0 0 0 0 0 0 0 0.3 0"/>
<feBlend mode="normal" in2="BackgroundImageFix" result="effect1_dropShadow_1552_17"/>
<feBlend mode="normal" in="SourceGraphic" in2="effect1_dropShadow_1552_17" result="shape"/>
</filter>
<filter id="filter1_d_1552_17" x="397.861" y="17.1001" width="198.857" height="76.8999" filterUnits="userSpaceOnUse" color-interpolation-filters="sRGB">
<feFlood flood-opacity="0" result="BackgroundImageFix"/>
<feColorMatrix in="SourceAlpha" type="matrix" values="0 0 0 0 0 0 0 0 0 0 0 0 0 0 0 0 0 0 127 0" result="hardAlpha"/>
<feOffset dx="1" dy="1"/>
<feGaussianBlur stdDeviation="0.5"/>
<feColorMatrix type="matrix" values="0 0 0 0 0 0 0 0 0 0 0 0 0 0 0 0 0 0 0.3 0"/>
<feBlend mode="normal" in2="BackgroundImageFix" result="effect1_dropShadow_1552_17"/>
<feBlend mode="normal" in="SourceGraphic" in2="effect1_dropShadow_1552_17" result="shape"/>
</filter>
<filter id="filter2_d_1552_17" x="7.04688" y="7.69995" width="27.2002" height="95.6001" filterUnits="userSpaceOnUse" color-interpolation-filters="sRGB">
<feFlood flood-opacity="0" result="BackgroundImageFix"/>
<feColorMatrix in="SourceAlpha" type="matrix" values="0 0 0 0 0 0 0 0 0 0 0 0 0 0 0 0 0 0 127 0" result="hardAlpha"/>
<feOffset dx="1" dy="1"/>
<feGaussianBlur stdDeviation="0.5"/>
<feColorMatrix type="matrix" values="0 0 0 0 0 0 0 0 0 0 0 0 0 0 0 0 0 0 0.3 0"/>
<feBlend mode="normal" in2="BackgroundImageFix" result="effect1_dropShadow_1552_17"/>
<feBlend mode="normal" in="SourceGraphic" in2="effect1_dropShadow_1552_17" result="shape"/>
</filter>
<filter id="filter3_d_1552_17" x="606.797" y="7.69995" width="27.2002" height="95.6001" filterUnits="userSpaceOnUse" color-interpolation-filters="sRGB">
<feFlood flood-opacity="0" result="BackgroundImageFix"/>
<feColorMatrix in="SourceAlpha" type="matrix" values="0 0 0 0 0 0 0 0 0 0 0 0 0 0 0 0 0 0 127 0" result="hardAlpha"/>
<feOffset dx="1" dy="1"/>
<feGaussianBlur stdDeviation="0.5"/>
<feColorMatrix type="matrix" values="0 0 0 0 0 0 0 0 0 0 0 0 0 0 0 0 0 0 0.3 0"/>
<feBlend mode="normal" in2="BackgroundImageFix" result="effect1_dropShadow_1552_17"/>
<feBlend mode="normal" in="SourceGraphic" in2="effect1_dropShadow_1552_17" result="shape"/>
</filter>
<clipPath id="clip0_1552_17">
<rect width="640" height="110" fill="white"/>
</clipPath>
</defs>
</svg>
